<svg width="223" height="58" viewBox="0 0 223 58" fill="none" xmlns="http://www.w3.org/2000/svg">
<rect y="12" width="223" height="46" rx="20" fill="white"/>
<path d="M172 0L193.5 16.5L194 21.5H177.5L172 0Z" fill="white"/>
<path d="M26.5781 30.9062V31.7188H19.5781V30.9062H22.5781V28.8594H23.5781V30.9062H26.5781ZM23.0781 32.75C24.7969 32.7656 26.0312 34.0312 26.0312 35.8438C26.0312 37.6719 24.7969 38.9531 23.0781 38.9531C21.3594 38.9531 20.125 37.6719 20.125 35.8438C20.125 34.0312 21.3594 32.7656 23.0781 32.75ZM23.0781 33.5938C21.875 33.6094 21 34.5781 21.0156 35.8438C21 37.125 21.875 38.0938 23.0781 38.0781C24.2656 38.0938 25.1406 37.125 25.1562 35.8438C25.1406 34.5781 24.2656 33.6094 23.0781 33.5938ZM31.2969 28.4375V42.2188H30.3594V35.1406H28.2812V41.5156H27.3594V28.7812H28.2812V34.3125H30.3594V28.4375H31.2969ZM43.8519 28.4375V32.1406H45.9769V32.9688H43.8519V36.7344H42.8675V28.4375H43.8519ZM39.4613 37.0156C42.2581 37.0156 43.9613 37.9688 43.9613 39.5938C43.9613 41.2344 42.2581 42.1719 39.4613 42.1719C36.6488 42.1719 34.93 41.2344 34.9456 39.5938C34.93 37.9688 36.6488 37.0156 39.4613 37.0156ZM39.4613 37.8438C37.2894 37.8281 35.8988 38.5156 35.8988 39.5938C35.8988 40.6719 37.2894 41.3594 39.4613 41.3594C41.6175 41.3594 43.0238 40.6719 43.0238 39.5938C43.0238 38.5156 41.6175 37.8281 39.4613 37.8438ZM34.8363 34.6562C37.6488 34.6562 39.305 34.5781 41.2425 34.1875L41.3675 35.0156C39.3519 35.4062 37.68 35.4844 34.8363 35.4844H33.7894V29.5312H39.8988V30.3594H34.7581V34.6562H34.8363ZM58.4306 29.9844V30.8125H50.2119V29.9844H53.8369V28.375H54.8056V29.9844H58.4306ZM54.3213 31.625C56.29 31.625 57.6025 32.5781 57.6025 34.0938C57.6025 35.5938 56.29 36.5469 54.3213 36.5469C52.3369 36.5469 51.0244 35.5938 51.0244 34.0938C51.0244 32.5781 52.3369 31.625 54.3213 31.625ZM54.3213 32.4062C52.8994 32.4062 51.9463 33.0938 51.9619 34.0938C51.9463 35.0938 52.8994 35.75 54.3213 35.75C55.7275 35.75 56.665 35.0938 56.6806 34.0938C56.665 33.0938 55.7275 32.4062 54.3213 32.4062ZM60.8994 28.4375V32.3281H63.0244V33.1719H60.8994V37.0312H59.915V28.4375H60.8994ZM60.8994 37.8594V42.2188H59.915V38.6719H51.9463V37.8594H60.8994ZM74.6263 29.8906V31.4844C74.6263 33.2812 74.6263 35.0156 74.1419 37.5156L73.1731 37.3906C73.6575 35.0156 73.6575 33.2344 73.6731 31.4844V30.7188H65.0169V29.8906H74.6263ZM76.2356 39.3281V40.1719H63.6731V39.3281H66.9231V34.7188H67.9075V39.3281H70.3763V34.7188H71.345V39.3281H76.2356ZM88.3063 32.7344V33.5625H78.9313V28.9375H79.9V32.7344H88.3063ZM89.775 35.5625V36.375H77.1656V35.5625H89.775ZM88.3844 41.0312V41.875H78.8688V37.875H79.8375V41.0312H88.3844ZM105.963 28.4375V42.2188H104.994V34.9375H102.854V41.5H101.916V28.8125H102.854V34.1094H104.994V28.4375H105.963ZM100.135 30.25C100.135 33.6562 98.8694 37.0156 94.885 39.2188L94.2913 38.5C97.6584 36.6719 99.0022 33.9688 99.1819 31.0781H94.7756V30.25H100.135ZM119.096 28.4375V35.5938H118.112V31.9531H114.893V31.125H118.112V28.4375H119.096ZM119.096 36.3438V39.4844H111.237V41.2031H119.659V42.0156H110.284V38.7031H118.128V37.1562H110.237V36.3438H119.096ZM112.268 30.2656C112.268 32.1406 113.846 33.8125 115.799 34.4688L115.253 35.25C113.729 34.6875 112.424 33.5469 111.831 32.0781C111.245 33.7344 109.932 34.9922 108.299 35.6094L107.753 34.8125C109.753 34.1094 111.315 32.3594 111.331 30.2656V28.8594H112.268V30.2656ZM131.675 30.125C131.675 31.9688 134.269 33.3594 136.534 33.6875L136.128 34.4844C134.034 34.1406 131.8 33.0312 131.066 31.3438C130.316 33.0312 128.097 34.1406 126.003 34.4844L125.613 33.6875C127.863 33.3594 130.456 31.9688 130.456 30.125V29.9844H125.941V29.1562H136.222V29.9844H131.675V30.125ZM137.378 35.6094V36.4375H131.628V39.3906H130.659V36.4375H124.769V35.6094H137.378ZM135.972 41.0625V41.8906H126.425V37.9844H127.409V41.0625H135.972ZM149.605 28.4375V42.2344H148.621V28.4375H149.605ZM140.105 29.625V33.3594H144.574V29.625H145.558V38.8594H139.121V29.625H140.105ZM140.105 38.0312H144.574V34.1719H140.105V38.0312ZM164.363 34.9375V35.7812H158.566V37.375C161.23 37.4922 162.801 38.3359 162.801 39.7812C162.801 41.3125 161.035 42.1719 158.082 42.1719C155.098 42.1719 153.332 41.3125 153.332 39.7812C153.332 38.3359 154.902 37.4922 157.582 37.375V35.7812H151.801V34.9375H164.363ZM158.082 38.1719C155.769 38.1719 154.332 38.7812 154.332 39.7812C154.332 40.7812 155.769 41.3906 158.082 41.3906C160.363 41.3906 161.816 40.7812 161.816 39.7812C161.816 38.7812 160.363 38.1719 158.082 38.1719ZM158.691 29.9531C158.691 31.6875 161.316 32.9531 163.613 33.2188L163.238 34C161.098 33.7188 158.824 32.7031 158.082 31.0938C157.324 32.7031 155.066 33.7188 152.941 34L152.566 33.2188C154.816 32.9531 157.473 31.7031 157.473 29.9531V29.9062H152.957V29.0938H163.238V29.9062H158.691V29.9531ZM176.637 28.4375V35.8125H175.652V28.4375H176.637ZM168.777 36.5469V38.3594H175.668V36.5469H176.637V42.0156H167.809V36.5469H168.777ZM168.777 41.2031H175.668V39.1719H168.777V41.2031ZM169.231 29.125C171.309 29.125 172.793 30.3906 172.793 32.2812C172.793 34.1406 171.309 35.4219 169.231 35.4062C167.152 35.4219 165.652 34.1406 165.668 32.2812C165.652 30.3906 167.152 29.125 169.231 29.125ZM169.231 29.9688C167.715 29.9688 166.621 30.9375 166.621 32.2812C166.621 33.6094 167.715 34.5781 169.231 34.5781C170.746 34.5781 171.84 33.6094 171.84 32.2812C171.84 30.9375 170.746 29.9688 169.231 29.9688ZM190.098 28.4375V42.2188H189.129V28.4375H190.098ZM180.723 29.7969V37.7344H180.848C183.004 37.7344 185.176 37.5625 187.551 37.0625L187.692 37.9219C185.239 38.4375 183.083 38.6094 180.848 38.6094H179.754V29.7969H180.723ZM202.934 28.4375V34H205.309V34.8281H202.934V42.2344H201.95V28.4375H202.934ZM194.012 37.8906C196.637 37.8906 198.419 37.7969 200.512 37.4062L200.653 38.2656C198.481 38.6562 196.684 38.75 194.012 38.75H192.95V29.7969H199.372V30.625H193.934V37.8906H194.012ZM207.193 41.0781C206.724 41.0781 206.349 40.7031 206.349 40.25C206.349 39.7812 206.724 39.4062 207.193 39.4062C207.646 39.4062 208.021 39.7812 208.021 40.25C208.021 40.7031 207.646 41.0781 207.193 41.0781Z" fill="black"/>
</svg>
